<svg width="400" height="160" viewBox="0 0 400 160" fill="none" xmlns="http://www.w3.org/2000/svg">
<rect width="400" height="160" fill="#0077FE"/>
<g filter="url(#filter0_i_170_7)">
<path d="M96.0859 72.4531C96.0859 73.5156 95.9375 74.4453 95.6406 75.2422C95.3594 76.0234 94.9531 76.6953 94.4219 77.2578C93.8906 77.8359 93.25 78.3281 92.5 78.7344C91.7656 79.1406 90.9453 79.4844 90.0391 79.7656V80C92.3203 80.5781 94.125 81.5625 95.4531 82.9531C96.1094 83.6719 96.6172 84.5 96.9766 85.4375C97.3516 86.375 97.5391 87.4297 97.5391 88.6016C97.5391 94.8672 92.9609 98 83.8047 98H68.3359V95.4453H70.3047C71.1328 95.4453 71.7578 95.2344 72.1797 94.8125C72.6016 94.3906 72.8125 93.5625 72.8125 92.3281V69.3359C72.8125 68.1953 72.5938 67.3984 72.1562 66.9453C71.7188 66.4922 71.1016 66.2656 70.3047 66.2656H68.3359V63.7344H82.3516C86.9141 63.7344 90.3438 64.4375 92.6406 65.8438C94.9375 67.25 96.0859 69.4531 96.0859 72.4531ZM82.1172 66.6641H80.3828V78.6172H82.2109C84.3984 78.6172 85.9297 78.1328 86.8047 77.1641C87.2578 76.6641 87.5703 76.0312 87.7422 75.2656C87.9297 74.4844 88.0234 73.5469 88.0234 72.4531C88.0234 70.2812 87.5781 68.7734 86.6875 67.9297C85.7969 67.0859 84.2734 66.6641 82.1172 66.6641ZM83.6641 81.5469H80.3828V95.0703H83.5703C85.7109 95.0703 87.2266 94.5703 88.1172 93.5703C89.0078 92.5859 89.4531 90.875 89.4531 88.4375C89.4531 87.2656 89.3594 86.25 89.1719 85.3906C88.9844 84.5156 88.6641 83.7969 88.2109 83.2344C87.7578 82.6719 87.1641 82.25 86.4297 81.9688C85.6953 81.6875 84.7734 81.5469 83.6641 81.5469ZM126.414 85.0391C126.414 89.5547 125.352 92.9219 123.227 95.1406C121.117 97.3594 118.008 98.4688 113.898 98.4688C109.977 98.4688 106.953 97.3594 104.828 95.1406C103.75 94.0312 102.922 92.6328 102.344 90.9453C101.781 89.2578 101.5 87.2891 101.5 85.0391C101.5 80.5234 102.555 77.1641 104.664 74.9609C106.789 72.7578 109.914 71.6562 114.039 71.6562C117.945 71.6562 120.969 72.7578 123.109 74.9609C124.172 76.0703 124.984 77.4688 125.547 79.1562C126.125 80.8281 126.414 82.7891 126.414 85.0391ZM108.953 85.0391C108.953 86.7422 109.047 88.2422 109.234 89.5391C109.422 90.8359 109.711 91.9219 110.102 92.7969C110.898 94.5625 112.195 95.4453 113.992 95.4453C115.789 95.4453 117.086 94.5625 117.883 92.7969C118.289 91.9219 118.57 90.8359 118.727 89.5391C118.898 88.2422 118.984 86.7422 118.984 85.0391C118.984 83.3203 118.898 81.8203 118.727 80.5391C118.555 79.2422 118.266 78.1641 117.859 77.3047C117.062 75.5859 115.758 74.7266 113.945 74.7266C112.133 74.7266 110.836 75.5859 110.055 77.3047C109.664 78.1641 109.383 79.2422 109.211 80.5391C109.039 81.8203 108.953 83.3203 108.953 85.0391ZM155.852 85.0391C155.852 89.5547 154.789 92.9219 152.664 95.1406C150.555 97.3594 147.445 98.4688 143.336 98.4688C139.414 98.4688 136.391 97.3594 134.266 95.1406C133.188 94.0312 132.359 92.6328 131.781 90.9453C131.219 89.2578 130.938 87.2891 130.938 85.0391C130.938 80.5234 131.992 77.1641 134.102 74.9609C136.227 72.7578 139.352 71.6562 143.477 71.6562C147.383 71.6562 150.406 72.7578 152.547 74.9609C153.609 76.0703 154.422 77.4688 154.984 79.1562C155.562 80.8281 155.852 82.7891 155.852 85.0391ZM138.391 85.0391C138.391 86.7422 138.484 88.2422 138.672 89.5391C138.859 90.8359 139.148 91.9219 139.539 92.7969C140.336 94.5625 141.633 95.4453 143.43 95.4453C145.227 95.4453 146.523 94.5625 147.32 92.7969C147.727 91.9219 148.008 90.8359 148.164 89.5391C148.336 88.2422 148.422 86.7422 148.422 85.0391C148.422 83.3203 148.336 81.8203 148.164 80.5391C147.992 79.2422 147.703 78.1641 147.297 77.3047C146.5 75.5859 145.195 74.7266 143.383 74.7266C141.57 74.7266 140.273 75.5859 139.492 77.3047C139.102 78.1641 138.82 79.2422 138.648 80.5391C138.477 81.8203 138.391 83.3203 138.391 85.0391ZM188.5 95.4453H188.664V98H187.984C186.234 98 184.766 97.9609 183.578 97.8828C182.391 97.8047 181.367 97.625 180.508 97.3438C179.648 97.0625 178.906 96.6406 178.281 96.0781C177.656 95.5 177.031 94.7188 176.406 93.7344L172.141 87.0078L170.219 88.4375V92.3281C170.219 93.5625 170.57 94.3906 171.273 94.8125C171.992 95.2344 172.781 95.4453 173.641 95.4453H174.203V98H158.945V95.4453H159.508C160.383 95.4453 161.172 95.2344 161.875 94.8125C162.578 94.3906 162.93 93.5625 162.93 92.3281V66.9922C162.93 65.8203 162.57 65.0391 161.852 64.6484C161.133 64.2578 160.352 64.0625 159.508 64.0625H158.945V61.5312H170.219V80.0469C170.219 81 170.18 82.0469 170.102 83.1875C170.086 83.4844 170.062 83.7891 170.031 84.1016C170.016 84.4141 170 84.7266 169.984 85.0391L176.031 78.2656C176.562 77.7031 176.914 77.2266 177.086 76.8359C177.242 76.5078 177.32 76.2188 177.32 75.9688C177.32 75.1094 176.492 74.6797 174.836 74.6797V72.2656H186.93V74.6797C185.82 74.6797 184.727 75.0078 183.648 75.6641C182.586 76.3047 181.422 77.3359 180.156 78.7578L177.133 82.2031L183.508 91.7188C184.352 92.9844 185.203 93.9219 186.062 94.5312C186.922 95.1406 187.734 95.4453 188.5 95.4453ZM216.625 63.7344L216.859 72.5703H213.508L213.273 70.25C213.117 68.9844 212.727 68.0703 212.102 67.5078C211.492 66.9453 210.695 66.6641 209.711 66.6641H202.07V79.7656H213.461V82.6016H202.07V92.3281C202.07 93.5625 202.281 94.3906 202.703 94.8125C203.141 95.2344 203.766 95.4453 204.578 95.4453H207.555V98H190.023V95.4453H192.039C192.867 95.4453 193.484 95.2578 193.891 94.8828C194.297 94.4922 194.5 93.7266 194.5 92.5859V69.1953C194.5 68.0547 194.289 67.2812 193.867 66.875C193.461 66.4688 192.852 66.2656 192.039 66.2656H190.023V63.7344H216.625ZM222.625 64.4844C222.625 63.2969 223.008 62.4297 223.773 61.8828C224.555 61.3203 225.531 61.0391 226.703 61.0391C227.844 61.0391 228.812 61.3203 229.609 61.8828C230.422 62.4297 230.828 63.2969 230.828 64.4844C230.828 65.6406 230.422 66.5078 229.609 67.0859C228.797 67.6641 227.828 67.9531 226.703 67.9531C225.531 67.9531 224.555 67.6641 223.773 67.0859C223.008 66.5078 222.625 65.6406 222.625 64.4844ZM219.32 98V95.4453H219.883C220.758 95.4453 221.547 95.2344 222.25 94.8125C222.953 94.3906 223.305 93.5625 223.305 92.3281V77.75C223.305 76.5781 222.945 75.7969 222.227 75.4062C221.508 75.0156 220.727 74.8203 219.883 74.8203H219.32V72.2656H230.594V92.3281C230.594 93.5625 230.945 94.3906 231.648 94.8125C232.367 95.2344 233.156 95.4453 234.016 95.4453H234.578V98H219.32ZM266.195 95.4453V98H255.531V82.2031C255.531 80.2656 255.258 78.7031 254.711 77.5156C254.18 76.3281 253.172 75.7344 251.688 75.7344C250.625 75.7344 249.789 76.0859 249.18 76.7891C248.57 77.4922 248.141 78.4141 247.891 79.5547C247.641 80.6797 247.516 81.8828 247.516 83.1641V92.3281C247.516 93.6094 247.812 94.4531 248.406 94.8594C249 95.25 249.859 95.4453 250.984 95.4453H251.125V98H236.383V95.4453H236.477C237.664 95.4453 238.586 95.2422 239.242 94.8359C239.898 94.4141 240.227 93.5156 240.227 92.1406V77.9375C240.227 76.6406 239.93 75.7969 239.336 75.4062C238.742 75.0156 237.883 74.8203 236.758 74.8203H236.617V72.2656H246.695L247.328 75.6875H247.562C248.484 73.9688 249.523 72.8672 250.68 72.3828C251.852 71.8984 253.258 71.6562 254.898 71.6562C256.133 71.6562 257.242 71.8359 258.227 72.1953C259.227 72.5547 260.062 73.1094 260.734 73.8594C261.422 74.6094 261.938 75.5703 262.281 76.7422C262.641 77.8984 262.82 79.2891 262.82 80.9141V92.0469C262.82 93.4375 263.062 94.3516 263.547 94.7891C264.047 95.2266 264.883 95.4453 266.055 95.4453H266.195ZM282.18 61.5312H293.734V92.0938C293.734 93.4688 294.102 94.375 294.836 94.8125C295.586 95.2344 296.547 95.4453 297.719 95.4453H297.906V98H288.602L287.266 94.25H286.82C286.086 95.6094 285.117 96.6562 283.914 97.3906C282.727 98.1094 281.234 98.4688 279.438 98.4688C276.25 98.4688 273.836 97.3984 272.195 95.2578C270.492 93.0859 269.641 89.7266 269.641 85.1797C269.641 80.6016 270.484 77.1953 272.172 74.9609C273.812 72.7891 276.203 71.7031 279.344 71.7031C281.016 71.7031 282.453 72.0469 283.656 72.7344C284.859 73.4219 285.805 74.3594 286.492 75.5469H286.82C286.789 75.0938 286.758 74.6641 286.727 74.2578C286.695 73.8359 286.664 73.4297 286.633 73.0391C286.617 72.4922 286.578 71.8672 286.516 71.1641C286.469 70.4609 286.445 69.9688 286.445 69.6875V67.0391C286.445 65.7734 286.086 64.9609 285.367 64.6016C284.648 64.2422 283.711 64.0625 282.555 64.0625H282.18V61.5312ZM281.5 94.8828C283.344 94.8828 284.648 94.0781 285.414 92.4688C285.789 91.6562 286.055 90.6406 286.211 89.4219C286.367 88.1875 286.445 86.7422 286.445 85.0859C286.445 83.5078 286.367 82.1094 286.211 80.8906C286.055 79.6562 285.789 78.6172 285.414 77.7734C284.633 76.0859 283.328 75.2422 281.5 75.2422C279.922 75.2422 278.781 76.0938 278.078 77.7969C277.391 79.4531 277.047 81.8984 277.047 85.1328C277.047 88.3672 277.391 90.8047 278.078 92.4453C278.766 94.0703 279.906 94.8828 281.5 94.8828ZM313.305 98.4688C309.258 98.4688 306.164 97.3125 304.023 95C301.914 92.7188 300.859 89.4766 300.859 85.2734C300.859 80.7891 301.898 77.3906 303.977 75.0781C306.023 72.7969 308.953 71.6562 312.766 71.6562C316.297 71.6562 319.039 72.6328 320.992 74.5859C321.961 75.5547 322.703 76.7578 323.219 78.1953C323.734 79.6328 323.992 81.3047 323.992 83.2109V85.6719H308.266C308.312 87.2812 308.492 88.6641 308.805 89.8203C309.117 90.9766 309.539 91.9297 310.07 92.6797C311.133 94.1484 312.672 94.8828 314.688 94.8828C316.266 94.8828 317.641 94.5312 318.812 93.8281C319.984 93.1094 320.867 92.1641 321.461 90.9922C322.32 91.4609 322.75 92.2422 322.75 93.3359C322.75 94.0234 322.562 94.6797 322.188 95.3047C321.812 95.9141 321.234 96.4531 320.453 96.9219C319.672 97.3906 318.688 97.7656 317.5 98.0469C316.328 98.3281 314.93 98.4688 313.305 98.4688ZM312.859 74.7734C311.516 74.7734 310.445 75.4375 309.648 76.7656C308.867 78.0938 308.438 80.0391 308.359 82.6016H316.656C316.656 81.3828 316.586 80.2891 316.445 79.3203C316.32 78.3516 316.102 77.5312 315.789 76.8594C315.148 75.4688 314.172 74.7734 312.859 74.7734ZM341.477 95.4453H343.023V98H326.992V95.4453H327.133C328.336 95.4453 329.25 95.2266 329.875 94.7891C330.516 94.3359 330.836 93.4062 330.836 92V78.0781C330.836 76.7344 330.539 75.8594 329.945 75.4531C329.367 75.0312 328.508 74.8203 327.367 74.8203H327.227V72.2656H336.93L337.891 76.0156H338.125C338.781 74.5 339.602 73.4062 340.586 72.7344C341.57 72.0469 343.008 71.7031 344.898 71.7031C348.57 71.7031 350.406 73 350.406 75.5938C350.406 77.0625 349.875 78.2031 348.812 79.0156C347.75 79.8281 346.25 80.2344 344.312 80.2344C344.312 79 344.164 78.0312 343.867 77.3281C343.57 76.6094 342.938 76.25 341.969 76.25C341.156 76.25 340.492 76.5547 339.977 77.1641C339.461 77.7578 339.07 78.4609 338.805 79.2734C338.617 79.8359 338.477 80.3984 338.383 80.9609C338.273 81.5391 338.203 82.0859 338.172 82.6016C338.141 83.1172 338.125 83.5625 338.125 83.9375V92.2344C338.125 93.5625 338.414 94.4297 338.992 94.8359C339.57 95.2422 340.398 95.4453 341.477 95.4453Z" fill="white"/>
</g>
<defs>
<filter id="filter0_i_170_7" x="68.3359" y="61.0391" width="282.07" height="41.4297" filterUnits="userSpaceOnUse" color-interpolation-filters="sRGB">
<feFlood flood-opacity="0" result="BackgroundImageFix"/>
<feBlend mode="normal" in="SourceGraphic" in2="BackgroundImageFix" result="shape"/>
<feColorMatrix in="SourceAlpha" type="matrix" values="0 0 0 0 0 0 0 0 0 0 0 0 0 0 0 0 0 0 127 0" result="hardAlpha"/>
<feOffset dy="4"/>
<feGaussianBlur stdDeviation="2"/>
<feComposite in2="hardAlpha" operator="arithmetic" k2="-1" k3="1"/>
<feColorMatrix type="matrix" values="0 0 0 0 0 0 0 0 0 0 0 0 0 0 0 0 0 0 0.25 0"/>
<feBlend mode="normal" in2="shape" result="effect1_innerShadow_170_7"/>
</filter>
</defs>
</svg>
